<?xml version="1.0" standalone="no"?>
<!DOCTYPE svg PUBLIC "-//W3C//DTD SVG 20010904//EN"
 "http://www.w3.org/TR/2001/REC-SVG-20010904/DTD/svg10.dtd">
<svg version="1.0" xmlns="http://www.w3.org/2000/svg"
 width="606.000000pt" height="505.000000pt" viewBox="0 0 606.000000 505.000000"
 preserveAspectRatio="xMidYMid meet">
<g transform="translate(0.000000,505.000000) scale(0.100000,-0.100000)"
fill="#ffffff" stroke="none">
<path d="M2640 5013 c-172 -19 -383 -75 -532 -142 -81 -36 -261 -153 -383
-248 -720 -563 -1086 -1357 -1027 -2225 43 -633 242 -1125 626 -1552 39 -43
119 -120 178 -171 390 -336 853 -540 1418 -626 140 -22 188 -24 485 -24 261 0
356 4 455 18 424 60 811 176 1188 357 208 101 502 273 489 287 -3 2 -27 -7
-54 -20 -81 -41 -293 -124 -465 -182 -1102 -376 -2070 -388 -2793 -35 -467
227 -824 597 -1074 1110 -53 108 -63 139 -77 230 -24 152 -15 391 19 521 85
325 284 561 602 714 185 89 366 132 495 119 264 -28 428 -166 502 -421 21 -71
23 -98 22 -288 -1 -242 -13 -323 -110 -715 -100 -408 -222 -738 -334 -907 -32
-49 -56 -90 -53 -93 2 -3 86 79 186 182 320 329 770 752 899 845 l43 31 -7
-142 c-24 -480 -101 -934 -194 -1144 -13 -30 -22 -57 -20 -59 2 -2 30 40 61
94 636 1088 1163 1776 1460 1903 90 39 194 15 235 -53 29 -47 27 -139 -6 -235
-29 -88 -104 -240 -165 -337 -23 -36 -39 -68 -36 -71 15 -15 188 130 278 233
140 161 193 323 155 473 -42 163 -166 268 -304 258 -84 -6 -149 -42 -287 -159
-170 -145 -525 -504 -625 -633 -47 -60 -131 -162 -186 -226 l-102 -118 -6 161
c-8 186 -21 320 -39 392 -17 66 -40 69 -124 18 -151 -92 -382 -312 -640 -611
-69 -81 -133 -154 -140 -162 -9 -10 -6 6 7 44 69 202 168 569 212 786 20 100
23 144 23 330 -1 190 -3 224 -23 295 -80 289 -258 471 -522 535 -157 37 -337
21 -551 -50 -353 -117 -616 -341 -801 -684 l-49 -91 5 160 c23 718 383 1408
944 1812 110 79 215 131 367 181 317 105 600 123 855 57 200 -53 425 -193 521
-326 144 -198 251 -466 289 -724 17 -108 14 -330 -4 -440 -8 -49 -13 -91 -11
-93 7 -7 25 70 52 218 24 132 27 168 27 410 1 238 -1 276 -22 378 -54 267
-147 449 -307 600 -136 128 -316 213 -525 247 -88 14 -398 19 -500 8z"/>
</g>
</svg>
